<mxfile host="app.diagrams.net" modified="2024-03-06T02:29:02.394Z" agent="Mozilla/5.0 (Windows NT 10.0; Win64; x64) AppleWebKit/537.36 (KHTML, like Gecko) Chrome/122.0.0.0 Safari/537.36" etag="pfB456lXrrsgADm9dqiW" version="24.0.1" type="github">
  <diagram name="第 1 页" id="CEUX5lsQ60GN35DO3mzp">
    <mxGraphModel dx="1050" dy="541" grid="1" gridSize="10" guides="1" tooltips="1" connect="1" arrows="1" fold="1" page="1" pageScale="1" pageWidth="827" pageHeight="1169" math="0" shadow="0">
      <root>
        <mxCell id="0" />
        <mxCell id="1" parent="0" />
        <mxCell id="rwD2nhpvyJbwbhOULdww-1" value="" style="group;fillColor=#dae8fc;strokeColor=#6c8ebf;" vertex="1" connectable="0" parent="1">
          <mxGeometry x="580" y="145.5" width="80" height="109" as="geometry" />
        </mxCell>
        <mxCell id="rwD2nhpvyJbwbhOULdww-2" value="len" style="rounded=0;whiteSpace=wrap;html=1;fillColor=#dae8fc;strokeColor=#6c8ebf;" vertex="1" parent="rwD2nhpvyJbwbhOULdww-1">
          <mxGeometry y="36.666666666666686" width="80" height="36.66666666666667" as="geometry" />
        </mxCell>
        <mxCell id="rwD2nhpvyJbwbhOULdww-3" value="p" style="rounded=0;whiteSpace=wrap;html=1;fillColor=#dae8fc;strokeColor=#6c8ebf;" vertex="1" parent="rwD2nhpvyJbwbhOULdww-1">
          <mxGeometry width="80" height="36.66666666666667" as="geometry" />
        </mxCell>
        <mxCell id="rwD2nhpvyJbwbhOULdww-4" value="cap" style="rounded=0;whiteSpace=wrap;html=1;fillColor=#dae8fc;strokeColor=#6c8ebf;" vertex="1" parent="rwD2nhpvyJbwbhOULdww-1">
          <mxGeometry y="72.33333333333334" width="80" height="36.66666666666667" as="geometry" />
        </mxCell>
        <mxCell id="rwD2nhpvyJbwbhOULdww-5" value="" style="group;fillColor=#dae8fc;strokeColor=#6c8ebf;" vertex="1" connectable="0" parent="1">
          <mxGeometry x="310" y="140" width="120" height="120" as="geometry" />
        </mxCell>
        <mxCell id="rwD2nhpvyJbwbhOULdww-6" value="内存地址0xc00000c360" style="rounded=0;whiteSpace=wrap;html=1;fillColor=#ffe6cc;strokeColor=#d79b00;" vertex="1" parent="rwD2nhpvyJbwbhOULdww-5">
          <mxGeometry width="120" height="60" as="geometry" />
        </mxCell>
        <mxCell id="rwD2nhpvyJbwbhOULdww-7" value="[ ]int{1,2,3}" style="rounded=0;whiteSpace=wrap;html=1;fillColor=#dae8fc;strokeColor=#6c8ebf;" vertex="1" parent="rwD2nhpvyJbwbhOULdww-5">
          <mxGeometry y="60" width="120" height="60" as="geometry" />
        </mxCell>
        <mxCell id="rwD2nhpvyJbwbhOULdww-8" value="" style="group;fillColor=#dae8fc;strokeColor=#6c8ebf;" vertex="1" connectable="0" parent="1">
          <mxGeometry x="90" y="145.5" width="80" height="109" as="geometry" />
        </mxCell>
        <mxCell id="rwD2nhpvyJbwbhOULdww-9" value="len" style="rounded=0;whiteSpace=wrap;html=1;fillColor=#dae8fc;strokeColor=#6c8ebf;" vertex="1" parent="rwD2nhpvyJbwbhOULdww-8">
          <mxGeometry y="36.666666666666686" width="80" height="36.66666666666667" as="geometry" />
        </mxCell>
        <mxCell id="rwD2nhpvyJbwbhOULdww-10" value="p" style="rounded=0;whiteSpace=wrap;html=1;fillColor=#dae8fc;strokeColor=#6c8ebf;" vertex="1" parent="rwD2nhpvyJbwbhOULdww-8">
          <mxGeometry width="80" height="36.66666666666667" as="geometry" />
        </mxCell>
        <mxCell id="rwD2nhpvyJbwbhOULdww-11" value="cap" style="rounded=0;whiteSpace=wrap;html=1;fillColor=#dae8fc;strokeColor=#6c8ebf;" vertex="1" parent="rwD2nhpvyJbwbhOULdww-8">
          <mxGeometry y="72.33333333333334" width="80" height="36.66666666666667" as="geometry" />
        </mxCell>
        <mxCell id="rwD2nhpvyJbwbhOULdww-12" style="edgeStyle=orthogonalEdgeStyle;rounded=0;orthogonalLoop=1;jettySize=auto;html=1;entryX=0.013;entryY=0.383;entryDx=0;entryDy=0;entryPerimeter=0;" edge="1" parent="1" source="rwD2nhpvyJbwbhOULdww-10" target="rwD2nhpvyJbwbhOULdww-6">
          <mxGeometry relative="1" as="geometry" />
        </mxCell>
        <mxCell id="rwD2nhpvyJbwbhOULdww-18" style="rounded=0;orthogonalLoop=1;jettySize=auto;html=1;entryX=0.993;entryY=0.37;entryDx=0;entryDy=0;entryPerimeter=0;" edge="1" parent="1" source="rwD2nhpvyJbwbhOULdww-3" target="rwD2nhpvyJbwbhOULdww-6">
          <mxGeometry relative="1" as="geometry" />
        </mxCell>
        <mxCell id="rwD2nhpvyJbwbhOULdww-19" value="main 中的 slice1" style="text;html=1;align=center;verticalAlign=middle;whiteSpace=wrap;rounded=0;" vertex="1" parent="1">
          <mxGeometry x="100" y="100" width="100" height="30" as="geometry" />
        </mxCell>
        <mxCell id="rwD2nhpvyJbwbhOULdww-20" value="change1 中的 aa" style="text;html=1;align=center;verticalAlign=middle;whiteSpace=wrap;rounded=0;" vertex="1" parent="1">
          <mxGeometry x="590" y="100" width="110" height="30" as="geometry" />
        </mxCell>
        <mxCell id="rwD2nhpvyJbwbhOULdww-21" value="只传递了参数，但是还没有进行 append" style="text;html=1;align=center;verticalAlign=middle;whiteSpace=wrap;rounded=0;" vertex="1" parent="1">
          <mxGeometry x="80" y="50" width="250" height="30" as="geometry" />
        </mxCell>
        <mxCell id="rwD2nhpvyJbwbhOULdww-22" value="" style="group;fillColor=#dae8fc;strokeColor=#6c8ebf;" vertex="1" connectable="0" parent="1">
          <mxGeometry x="580" y="405.5" width="80" height="109" as="geometry" />
        </mxCell>
        <mxCell id="rwD2nhpvyJbwbhOULdww-23" value="len" style="rounded=0;whiteSpace=wrap;html=1;fillColor=#dae8fc;strokeColor=#6c8ebf;" vertex="1" parent="rwD2nhpvyJbwbhOULdww-22">
          <mxGeometry y="36.666666666666686" width="80" height="36.66666666666667" as="geometry" />
        </mxCell>
        <mxCell id="rwD2nhpvyJbwbhOULdww-24" value="p" style="rounded=0;whiteSpace=wrap;html=1;fillColor=#dae8fc;strokeColor=#6c8ebf;" vertex="1" parent="rwD2nhpvyJbwbhOULdww-22">
          <mxGeometry width="80" height="36.66666666666667" as="geometry" />
        </mxCell>
        <mxCell id="rwD2nhpvyJbwbhOULdww-25" value="cap" style="rounded=0;whiteSpace=wrap;html=1;fillColor=#dae8fc;strokeColor=#6c8ebf;" vertex="1" parent="rwD2nhpvyJbwbhOULdww-22">
          <mxGeometry y="72.33333333333334" width="80" height="36.66666666666667" as="geometry" />
        </mxCell>
        <mxCell id="rwD2nhpvyJbwbhOULdww-26" value="" style="group;fillColor=#dae8fc;strokeColor=#6c8ebf;" vertex="1" connectable="0" parent="1">
          <mxGeometry x="310" y="400" width="120" height="120" as="geometry" />
        </mxCell>
        <mxCell id="rwD2nhpvyJbwbhOULdww-27" value="内存地址0xc00000c360" style="rounded=0;whiteSpace=wrap;html=1;fillColor=#ffe6cc;strokeColor=#d79b00;" vertex="1" parent="rwD2nhpvyJbwbhOULdww-26">
          <mxGeometry width="120" height="60" as="geometry" />
        </mxCell>
        <mxCell id="rwD2nhpvyJbwbhOULdww-28" value="[ ]int{1,2,3}" style="rounded=0;whiteSpace=wrap;html=1;fillColor=#dae8fc;strokeColor=#6c8ebf;" vertex="1" parent="rwD2nhpvyJbwbhOULdww-26">
          <mxGeometry y="60" width="120" height="60" as="geometry" />
        </mxCell>
        <mxCell id="rwD2nhpvyJbwbhOULdww-29" value="" style="group;fillColor=#dae8fc;strokeColor=#6c8ebf;" vertex="1" connectable="0" parent="1">
          <mxGeometry x="90" y="405.5" width="80" height="109" as="geometry" />
        </mxCell>
        <mxCell id="rwD2nhpvyJbwbhOULdww-30" value="len" style="rounded=0;whiteSpace=wrap;html=1;fillColor=#dae8fc;strokeColor=#6c8ebf;" vertex="1" parent="rwD2nhpvyJbwbhOULdww-29">
          <mxGeometry y="36.666666666666686" width="80" height="36.66666666666667" as="geometry" />
        </mxCell>
        <mxCell id="rwD2nhpvyJbwbhOULdww-31" value="p" style="rounded=0;whiteSpace=wrap;html=1;fillColor=#dae8fc;strokeColor=#6c8ebf;" vertex="1" parent="rwD2nhpvyJbwbhOULdww-29">
          <mxGeometry width="80" height="36.66666666666667" as="geometry" />
        </mxCell>
        <mxCell id="rwD2nhpvyJbwbhOULdww-32" value="cap" style="rounded=0;whiteSpace=wrap;html=1;fillColor=#dae8fc;strokeColor=#6c8ebf;" vertex="1" parent="rwD2nhpvyJbwbhOULdww-29">
          <mxGeometry y="72.33333333333334" width="80" height="36.66666666666667" as="geometry" />
        </mxCell>
        <mxCell id="rwD2nhpvyJbwbhOULdww-33" style="edgeStyle=orthogonalEdgeStyle;rounded=0;orthogonalLoop=1;jettySize=auto;html=1;entryX=0.013;entryY=0.383;entryDx=0;entryDy=0;entryPerimeter=0;" edge="1" parent="1" source="rwD2nhpvyJbwbhOULdww-31" target="rwD2nhpvyJbwbhOULdww-27">
          <mxGeometry relative="1" as="geometry" />
        </mxCell>
        <mxCell id="rwD2nhpvyJbwbhOULdww-34" style="rounded=0;orthogonalLoop=1;jettySize=auto;html=1;entryX=1;entryY=0.5;entryDx=0;entryDy=0;exitX=0;exitY=0.5;exitDx=0;exitDy=0;" edge="1" parent="1" source="rwD2nhpvyJbwbhOULdww-24" target="rwD2nhpvyJbwbhOULdww-39">
          <mxGeometry relative="1" as="geometry" />
        </mxCell>
        <mxCell id="rwD2nhpvyJbwbhOULdww-35" value="main 中的 slice1" style="text;html=1;align=center;verticalAlign=middle;whiteSpace=wrap;rounded=0;" vertex="1" parent="1">
          <mxGeometry x="60" y="360" width="100" height="30" as="geometry" />
        </mxCell>
        <mxCell id="rwD2nhpvyJbwbhOULdww-36" value="change1 中的 aa" style="text;html=1;align=center;verticalAlign=middle;whiteSpace=wrap;rounded=0;" vertex="1" parent="1">
          <mxGeometry x="560" y="350" width="150" height="30" as="geometry" />
        </mxCell>
        <mxCell id="rwD2nhpvyJbwbhOULdww-37" value="进行 append 之后" style="text;html=1;align=center;verticalAlign=middle;whiteSpace=wrap;rounded=0;" vertex="1" parent="1">
          <mxGeometry x="60" y="300" width="250" height="30" as="geometry" />
        </mxCell>
        <mxCell id="rwD2nhpvyJbwbhOULdww-38" value="" style="group;fillColor=#dae8fc;strokeColor=#6c8ebf;" vertex="1" connectable="0" parent="1">
          <mxGeometry x="310" y="585" width="120" height="120" as="geometry" />
        </mxCell>
        <mxCell id="rwD2nhpvyJbwbhOULdww-39" value="内存地址0xc00000c362" style="rounded=0;whiteSpace=wrap;html=1;fillColor=#ffe6cc;strokeColor=#d79b00;" vertex="1" parent="rwD2nhpvyJbwbhOULdww-38">
          <mxGeometry width="120" height="60" as="geometry" />
        </mxCell>
        <mxCell id="rwD2nhpvyJbwbhOULdww-40" value="[ ]int{1,2,3,1,3,4,6,5}" style="rounded=0;whiteSpace=wrap;html=1;fillColor=#dae8fc;strokeColor=#6c8ebf;" vertex="1" parent="rwD2nhpvyJbwbhOULdww-38">
          <mxGeometry y="60" width="120" height="60" as="geometry" />
        </mxCell>
      </root>
    </mxGraphModel>
  </diagram>
</mxfile>
